G04 #@! TF.GenerationSoftware,KiCad,Pcbnew,5.1.9-1.fc33*
G04 #@! TF.CreationDate,2021-03-13T13:31:44-05:00*
G04 #@! TF.ProjectId,terminal,7465726d-696e-4616-9c2e-6b696361645f,rev?*
G04 #@! TF.SameCoordinates,Original*
G04 #@! TF.FileFunction,Soldermask,Bot*
G04 #@! TF.FilePolarity,Negative*
%FSLAX46Y46*%
G04 Gerber Fmt 4.6, Leading zero omitted, Abs format (unit mm)*
G04 Created by KiCad (PCBNEW 5.1.9-1.fc33) date 2021-03-13 13:31:44*
%MOMM*%
%LPD*%
G01*
G04 APERTURE LIST*
%ADD10C,1.701600*%
%ADD11O,2.101600X3.601600*%
%ADD12O,3.401600X2.101600*%
%ADD13C,1.886600*%
%ADD14C,4.601600*%
%ADD15O,3.601600X2.101600*%
%ADD16C,1.601600*%
%ADD17O,1.801600X3.501600*%
%ADD18C,4.501600*%
%ADD19C,2.101600*%
%ADD20C,1.801600*%
%ADD21O,1.801600X1.801600*%
%ADD22O,1.701600X1.701600*%
%ADD23C,5.701600*%
G04 APERTURE END LIST*
D10*
G04 #@! TO.C,J5*
X51000000Y-147000000D03*
D11*
X55500000Y-145000000D03*
X46500000Y-145000000D03*
D12*
X51000000Y-144000000D03*
G36*
G01*
X48949200Y-139000000D02*
X48949200Y-137000000D01*
G75*
G02*
X49000000Y-136949200I50800J0D01*
G01*
X53000000Y-136949200D01*
G75*
G02*
X53050800Y-137000000I0J-50800D01*
G01*
X53050800Y-139000000D01*
G75*
G02*
X53000000Y-139050800I-50800J0D01*
G01*
X49000000Y-139050800D01*
G75*
G02*
X48949200Y-139000000I0J50800D01*
G01*
G37*
G04 #@! TD*
D13*
G04 #@! TO.C,J3*
X130411000Y-141920000D03*
X133151000Y-141920000D03*
X135891000Y-141920000D03*
X138631000Y-141920000D03*
X131781000Y-139080000D03*
X134521000Y-139080000D03*
X137261000Y-139080000D03*
G36*
G01*
X139057700Y-139972500D02*
X139057700Y-138187500D01*
G75*
G02*
X139108500Y-138136700I50800J0D01*
G01*
X140893500Y-138136700D01*
G75*
G02*
X140944300Y-138187500I0J-50800D01*
G01*
X140944300Y-139972500D01*
G75*
G02*
X140893500Y-140023300I-50800J0D01*
G01*
X139108500Y-140023300D01*
G75*
G02*
X139057700Y-139972500I0J50800D01*
G01*
G37*
X129041000Y-139080000D03*
D14*
X147016000Y-140601600D03*
X122026000Y-140500000D03*
G04 #@! TD*
D15*
G04 #@! TO.C,J2*
X106327000Y-145300000D03*
D16*
X109727000Y-141500000D03*
G36*
G01*
X108427800Y-140750000D02*
X108427800Y-142250000D01*
G75*
G02*
X108377000Y-142300800I-50800J0D01*
G01*
X106877000Y-142300800D01*
G75*
G02*
X106826200Y-142250000I0J50800D01*
G01*
X106826200Y-140750000D01*
G75*
G02*
X106877000Y-140699200I50800J0D01*
G01*
X108377000Y-140699200D01*
G75*
G02*
X108427800Y-140750000I0J-50800D01*
G01*
G37*
X105027000Y-141500000D03*
X102927000Y-141500000D03*
X109727000Y-139000000D03*
X102927000Y-139000000D03*
D17*
X113077000Y-144400000D03*
X99577000Y-144400000D03*
G04 #@! TD*
D18*
G04 #@! TO.C,J1*
X91495000Y-138570000D03*
X66505000Y-138570000D03*
D13*
X74170000Y-141110000D03*
X76460000Y-141110000D03*
X78750000Y-141110000D03*
X81040000Y-141110000D03*
X83330000Y-141110000D03*
X75315000Y-138570000D03*
X77605000Y-138570000D03*
X79895000Y-138570000D03*
X82185000Y-138570000D03*
X84475000Y-138570000D03*
X74170000Y-136030000D03*
X76460000Y-136030000D03*
X78750000Y-136030000D03*
X81040000Y-136030000D03*
G36*
G01*
X82386700Y-136922500D02*
X82386700Y-135137500D01*
G75*
G02*
X82437500Y-135086700I50800J0D01*
G01*
X84222500Y-135086700D01*
G75*
G02*
X84273300Y-135137500I0J-50800D01*
G01*
X84273300Y-136922500D01*
G75*
G02*
X84222500Y-136973300I-50800J0D01*
G01*
X82437500Y-136973300D01*
G75*
G02*
X82386700Y-136922500I0J50800D01*
G01*
G37*
G04 #@! TD*
D19*
G04 #@! TO.C,U1*
X52066200Y-102865586D03*
X109444800Y-102865586D03*
X109444800Y-123704000D03*
X52066200Y-123704000D03*
D20*
X110410000Y-106940000D03*
X110410000Y-109480000D03*
X110410000Y-112020000D03*
X110410000Y-114560000D03*
X110410000Y-117100000D03*
X110410000Y-119640000D03*
X107870000Y-106940000D03*
X107870000Y-109480000D03*
X107870000Y-112020000D03*
X107870000Y-114560000D03*
X107870000Y-117100000D03*
X107870000Y-119640000D03*
X105330000Y-103130000D03*
X102790000Y-103130000D03*
X100250000Y-103130000D03*
X97710000Y-103130000D03*
X95170000Y-103130000D03*
X92630000Y-103130000D03*
X90090000Y-103130000D03*
X87550000Y-103130000D03*
X85010000Y-103130000D03*
X82470000Y-103130000D03*
X79930000Y-103130000D03*
X77390000Y-103130000D03*
X74850000Y-103130000D03*
X72310000Y-103130000D03*
X85010000Y-105670000D03*
X82470000Y-105670000D03*
X79930000Y-105670000D03*
X77390000Y-105670000D03*
X74850000Y-105670000D03*
X72310000Y-105670000D03*
X77390000Y-120910000D03*
X74850000Y-120910000D03*
X72310000Y-120910000D03*
X105330000Y-123450000D03*
X102790000Y-123450000D03*
X100250000Y-123450000D03*
X97710000Y-123450000D03*
X95170000Y-123450000D03*
X92630000Y-123450000D03*
X90090000Y-123450000D03*
X87550000Y-123450000D03*
X85010000Y-123450000D03*
X82470000Y-123450000D03*
X79930000Y-123450000D03*
X77390000Y-123450000D03*
G36*
G01*
X73160000Y-124350800D02*
X71460000Y-124350800D01*
G75*
G02*
X71409200Y-124300000I0J50800D01*
G01*
X71409200Y-122600000D01*
G75*
G02*
X71460000Y-122549200I50800J0D01*
G01*
X73160000Y-122549200D01*
G75*
G02*
X73210800Y-122600000I0J-50800D01*
G01*
X73210800Y-124300000D01*
G75*
G02*
X73160000Y-124350800I-50800J0D01*
G01*
G37*
X74850000Y-123450000D03*
G04 #@! TD*
G04 #@! TO.C,Q1*
G36*
G01*
X108750000Y-133199200D02*
X109550000Y-133199200D01*
G75*
G02*
X109600800Y-133250000I0J-50800D01*
G01*
X109600800Y-134150000D01*
G75*
G02*
X109550000Y-134200800I-50800J0D01*
G01*
X108750000Y-134200800D01*
G75*
G02*
X108699200Y-134150000I0J50800D01*
G01*
X108699200Y-133250000D01*
G75*
G02*
X108750000Y-133199200I50800J0D01*
G01*
G37*
G36*
G01*
X110650000Y-133199200D02*
X111450000Y-133199200D01*
G75*
G02*
X111500800Y-133250000I0J-50800D01*
G01*
X111500800Y-134150000D01*
G75*
G02*
X111450000Y-134200800I-50800J0D01*
G01*
X110650000Y-134200800D01*
G75*
G02*
X110599200Y-134150000I0J50800D01*
G01*
X110599200Y-133250000D01*
G75*
G02*
X110650000Y-133199200I50800J0D01*
G01*
G37*
G36*
G01*
X109700000Y-135199200D02*
X110500000Y-135199200D01*
G75*
G02*
X110550800Y-135250000I0J-50800D01*
G01*
X110550800Y-136150000D01*
G75*
G02*
X110500000Y-136200800I-50800J0D01*
G01*
X109700000Y-136200800D01*
G75*
G02*
X109649200Y-136150000I0J50800D01*
G01*
X109649200Y-135250000D01*
G75*
G02*
X109700000Y-135199200I50800J0D01*
G01*
G37*
G04 #@! TD*
G04 #@! TO.C,Q2*
G36*
G01*
X104700000Y-135199200D02*
X105500000Y-135199200D01*
G75*
G02*
X105550800Y-135250000I0J-50800D01*
G01*
X105550800Y-136150000D01*
G75*
G02*
X105500000Y-136200800I-50800J0D01*
G01*
X104700000Y-136200800D01*
G75*
G02*
X104649200Y-136150000I0J50800D01*
G01*
X104649200Y-135250000D01*
G75*
G02*
X104700000Y-135199200I50800J0D01*
G01*
G37*
G36*
G01*
X105650000Y-133199200D02*
X106450000Y-133199200D01*
G75*
G02*
X106500800Y-133250000I0J-50800D01*
G01*
X106500800Y-134150000D01*
G75*
G02*
X106450000Y-134200800I-50800J0D01*
G01*
X105650000Y-134200800D01*
G75*
G02*
X105599200Y-134150000I0J50800D01*
G01*
X105599200Y-133250000D01*
G75*
G02*
X105650000Y-133199200I50800J0D01*
G01*
G37*
G36*
G01*
X103750000Y-133199200D02*
X104550000Y-133199200D01*
G75*
G02*
X104600800Y-133250000I0J-50800D01*
G01*
X104600800Y-134150000D01*
G75*
G02*
X104550000Y-134200800I-50800J0D01*
G01*
X103750000Y-134200800D01*
G75*
G02*
X103699200Y-134150000I0J50800D01*
G01*
X103699200Y-133250000D01*
G75*
G02*
X103750000Y-133199200I50800J0D01*
G01*
G37*
G04 #@! TD*
G04 #@! TO.C,C1*
G36*
G01*
X138762900Y-136413300D02*
X138237100Y-136413300D01*
G75*
G02*
X137974200Y-136150400I0J262900D01*
G01*
X137974200Y-135499600D01*
G75*
G02*
X138237100Y-135236700I262900J0D01*
G01*
X138762900Y-135236700D01*
G75*
G02*
X139025800Y-135499600I0J-262900D01*
G01*
X139025800Y-136150400D01*
G75*
G02*
X138762900Y-136413300I-262900J0D01*
G01*
G37*
G36*
G01*
X138762900Y-134688300D02*
X138237100Y-134688300D01*
G75*
G02*
X137974200Y-134425400I0J262900D01*
G01*
X137974200Y-133774600D01*
G75*
G02*
X138237100Y-133511700I262900J0D01*
G01*
X138762900Y-133511700D01*
G75*
G02*
X139025800Y-133774600I0J-262900D01*
G01*
X139025800Y-134425400D01*
G75*
G02*
X138762900Y-134688300I-262900J0D01*
G01*
G37*
G04 #@! TD*
G04 #@! TO.C,C2*
G36*
G01*
X140362900Y-134688300D02*
X139837100Y-134688300D01*
G75*
G02*
X139574200Y-134425400I0J262900D01*
G01*
X139574200Y-133774600D01*
G75*
G02*
X139837100Y-133511700I262900J0D01*
G01*
X140362900Y-133511700D01*
G75*
G02*
X140625800Y-133774600I0J-262900D01*
G01*
X140625800Y-134425400D01*
G75*
G02*
X140362900Y-134688300I-262900J0D01*
G01*
G37*
G36*
G01*
X140362900Y-136413300D02*
X139837100Y-136413300D01*
G75*
G02*
X139574200Y-136150400I0J262900D01*
G01*
X139574200Y-135499600D01*
G75*
G02*
X139837100Y-135236700I262900J0D01*
G01*
X140362900Y-135236700D01*
G75*
G02*
X140625800Y-135499600I0J-262900D01*
G01*
X140625800Y-136150400D01*
G75*
G02*
X140362900Y-136413300I-262900J0D01*
G01*
G37*
G04 #@! TD*
G04 #@! TO.C,C3*
G36*
G01*
X100237100Y-137611700D02*
X100762900Y-137611700D01*
G75*
G02*
X101025800Y-137874600I0J-262900D01*
G01*
X101025800Y-138525400D01*
G75*
G02*
X100762900Y-138788300I-262900J0D01*
G01*
X100237100Y-138788300D01*
G75*
G02*
X99974200Y-138525400I0J262900D01*
G01*
X99974200Y-137874600D01*
G75*
G02*
X100237100Y-137611700I262900J0D01*
G01*
G37*
G36*
G01*
X100237100Y-139336700D02*
X100762900Y-139336700D01*
G75*
G02*
X101025800Y-139599600I0J-262900D01*
G01*
X101025800Y-140250400D01*
G75*
G02*
X100762900Y-140513300I-262900J0D01*
G01*
X100237100Y-140513300D01*
G75*
G02*
X99974200Y-140250400I0J262900D01*
G01*
X99974200Y-139599600D01*
G75*
G02*
X100237100Y-139336700I262900J0D01*
G01*
G37*
G04 #@! TD*
G04 #@! TO.C,C4*
G36*
G01*
X129162900Y-134863300D02*
X128637100Y-134863300D01*
G75*
G02*
X128374200Y-134600400I0J262900D01*
G01*
X128374200Y-133949600D01*
G75*
G02*
X128637100Y-133686700I262900J0D01*
G01*
X129162900Y-133686700D01*
G75*
G02*
X129425800Y-133949600I0J-262900D01*
G01*
X129425800Y-134600400D01*
G75*
G02*
X129162900Y-134863300I-262900J0D01*
G01*
G37*
G36*
G01*
X129162900Y-136588300D02*
X128637100Y-136588300D01*
G75*
G02*
X128374200Y-136325400I0J262900D01*
G01*
X128374200Y-135674600D01*
G75*
G02*
X128637100Y-135411700I262900J0D01*
G01*
X129162900Y-135411700D01*
G75*
G02*
X129425800Y-135674600I0J-262900D01*
G01*
X129425800Y-136325400D01*
G75*
G02*
X129162900Y-136588300I-262900J0D01*
G01*
G37*
G04 #@! TD*
G04 #@! TO.C,C5*
G36*
G01*
X129162900Y-133188300D02*
X128637100Y-133188300D01*
G75*
G02*
X128374200Y-132925400I0J262900D01*
G01*
X128374200Y-132274600D01*
G75*
G02*
X128637100Y-132011700I262900J0D01*
G01*
X129162900Y-132011700D01*
G75*
G02*
X129425800Y-132274600I0J-262900D01*
G01*
X129425800Y-132925400D01*
G75*
G02*
X129162900Y-133188300I-262900J0D01*
G01*
G37*
G36*
G01*
X129162900Y-131463300D02*
X128637100Y-131463300D01*
G75*
G02*
X128374200Y-131200400I0J262900D01*
G01*
X128374200Y-130549600D01*
G75*
G02*
X128637100Y-130286700I262900J0D01*
G01*
X129162900Y-130286700D01*
G75*
G02*
X129425800Y-130549600I0J-262900D01*
G01*
X129425800Y-131200400D01*
G75*
G02*
X129162900Y-131463300I-262900J0D01*
G01*
G37*
G04 #@! TD*
G04 #@! TO.C,J4*
G36*
G01*
X113799200Y-107830000D02*
X113799200Y-106130000D01*
G75*
G02*
X113850000Y-106079200I50800J0D01*
G01*
X115550000Y-106079200D01*
G75*
G02*
X115600800Y-106130000I0J-50800D01*
G01*
X115600800Y-107830000D01*
G75*
G02*
X115550000Y-107880800I-50800J0D01*
G01*
X113850000Y-107880800D01*
G75*
G02*
X113799200Y-107830000I0J50800D01*
G01*
G37*
D21*
X114700000Y-109520000D03*
X114700000Y-112060000D03*
X114700000Y-114600000D03*
X114700000Y-117140000D03*
X114700000Y-119680000D03*
G04 #@! TD*
G04 #@! TO.C,R1*
G36*
G01*
X83662900Y-131363300D02*
X83137100Y-131363300D01*
G75*
G02*
X82874200Y-131100400I0J262900D01*
G01*
X82874200Y-130549600D01*
G75*
G02*
X83137100Y-130286700I262900J0D01*
G01*
X83662900Y-130286700D01*
G75*
G02*
X83925800Y-130549600I0J-262900D01*
G01*
X83925800Y-131100400D01*
G75*
G02*
X83662900Y-131363300I-262900J0D01*
G01*
G37*
G36*
G01*
X83662900Y-129538300D02*
X83137100Y-129538300D01*
G75*
G02*
X82874200Y-129275400I0J262900D01*
G01*
X82874200Y-128724600D01*
G75*
G02*
X83137100Y-128461700I262900J0D01*
G01*
X83662900Y-128461700D01*
G75*
G02*
X83925800Y-128724600I0J-262900D01*
G01*
X83925800Y-129275400D01*
G75*
G02*
X83662900Y-129538300I-262900J0D01*
G01*
G37*
G04 #@! TD*
G04 #@! TO.C,R2*
G36*
G01*
X85462900Y-129513300D02*
X84937100Y-129513300D01*
G75*
G02*
X84674200Y-129250400I0J262900D01*
G01*
X84674200Y-128699600D01*
G75*
G02*
X84937100Y-128436700I262900J0D01*
G01*
X85462900Y-128436700D01*
G75*
G02*
X85725800Y-128699600I0J-262900D01*
G01*
X85725800Y-129250400D01*
G75*
G02*
X85462900Y-129513300I-262900J0D01*
G01*
G37*
G36*
G01*
X85462900Y-131338300D02*
X84937100Y-131338300D01*
G75*
G02*
X84674200Y-131075400I0J262900D01*
G01*
X84674200Y-130524600D01*
G75*
G02*
X84937100Y-130261700I262900J0D01*
G01*
X85462900Y-130261700D01*
G75*
G02*
X85725800Y-130524600I0J-262900D01*
G01*
X85725800Y-131075400D01*
G75*
G02*
X85462900Y-131338300I-262900J0D01*
G01*
G37*
G04 #@! TD*
G04 #@! TO.C,R3*
G36*
G01*
X80062900Y-131338300D02*
X79537100Y-131338300D01*
G75*
G02*
X79274200Y-131075400I0J262900D01*
G01*
X79274200Y-130524600D01*
G75*
G02*
X79537100Y-130261700I262900J0D01*
G01*
X80062900Y-130261700D01*
G75*
G02*
X80325800Y-130524600I0J-262900D01*
G01*
X80325800Y-131075400D01*
G75*
G02*
X80062900Y-131338300I-262900J0D01*
G01*
G37*
G36*
G01*
X80062900Y-129513300D02*
X79537100Y-129513300D01*
G75*
G02*
X79274200Y-129250400I0J262900D01*
G01*
X79274200Y-128699600D01*
G75*
G02*
X79537100Y-128436700I262900J0D01*
G01*
X80062900Y-128436700D01*
G75*
G02*
X80325800Y-128699600I0J-262900D01*
G01*
X80325800Y-129250400D01*
G75*
G02*
X80062900Y-129513300I-262900J0D01*
G01*
G37*
G04 #@! TD*
G04 #@! TO.C,R4*
G36*
G01*
X81862900Y-129513300D02*
X81337100Y-129513300D01*
G75*
G02*
X81074200Y-129250400I0J262900D01*
G01*
X81074200Y-128699600D01*
G75*
G02*
X81337100Y-128436700I262900J0D01*
G01*
X81862900Y-128436700D01*
G75*
G02*
X82125800Y-128699600I0J-262900D01*
G01*
X82125800Y-129250400D01*
G75*
G02*
X81862900Y-129513300I-262900J0D01*
G01*
G37*
G36*
G01*
X81862900Y-131338300D02*
X81337100Y-131338300D01*
G75*
G02*
X81074200Y-131075400I0J262900D01*
G01*
X81074200Y-130524600D01*
G75*
G02*
X81337100Y-130261700I262900J0D01*
G01*
X81862900Y-130261700D01*
G75*
G02*
X82125800Y-130524600I0J-262900D01*
G01*
X82125800Y-131075400D01*
G75*
G02*
X81862900Y-131338300I-262900J0D01*
G01*
G37*
G04 #@! TD*
G04 #@! TO.C,R5*
G36*
G01*
X76462900Y-131338300D02*
X75937100Y-131338300D01*
G75*
G02*
X75674200Y-131075400I0J262900D01*
G01*
X75674200Y-130524600D01*
G75*
G02*
X75937100Y-130261700I262900J0D01*
G01*
X76462900Y-130261700D01*
G75*
G02*
X76725800Y-130524600I0J-262900D01*
G01*
X76725800Y-131075400D01*
G75*
G02*
X76462900Y-131338300I-262900J0D01*
G01*
G37*
G36*
G01*
X76462900Y-129513300D02*
X75937100Y-129513300D01*
G75*
G02*
X75674200Y-129250400I0J262900D01*
G01*
X75674200Y-128699600D01*
G75*
G02*
X75937100Y-128436700I262900J0D01*
G01*
X76462900Y-128436700D01*
G75*
G02*
X76725800Y-128699600I0J-262900D01*
G01*
X76725800Y-129250400D01*
G75*
G02*
X76462900Y-129513300I-262900J0D01*
G01*
G37*
G04 #@! TD*
G04 #@! TO.C,R6*
G36*
G01*
X78262900Y-129538300D02*
X77737100Y-129538300D01*
G75*
G02*
X77474200Y-129275400I0J262900D01*
G01*
X77474200Y-128724600D01*
G75*
G02*
X77737100Y-128461700I262900J0D01*
G01*
X78262900Y-128461700D01*
G75*
G02*
X78525800Y-128724600I0J-262900D01*
G01*
X78525800Y-129275400D01*
G75*
G02*
X78262900Y-129538300I-262900J0D01*
G01*
G37*
G36*
G01*
X78262900Y-131363300D02*
X77737100Y-131363300D01*
G75*
G02*
X77474200Y-131100400I0J262900D01*
G01*
X77474200Y-130549600D01*
G75*
G02*
X77737100Y-130286700I262900J0D01*
G01*
X78262900Y-130286700D01*
G75*
G02*
X78525800Y-130549600I0J-262900D01*
G01*
X78525800Y-131100400D01*
G75*
G02*
X78262900Y-131363300I-262900J0D01*
G01*
G37*
G04 #@! TD*
G04 #@! TO.C,R7*
G36*
G01*
X113313300Y-135337100D02*
X113313300Y-135862900D01*
G75*
G02*
X113050400Y-136125800I-262900J0D01*
G01*
X112499600Y-136125800D01*
G75*
G02*
X112236700Y-135862900I0J262900D01*
G01*
X112236700Y-135337100D01*
G75*
G02*
X112499600Y-135074200I262900J0D01*
G01*
X113050400Y-135074200D01*
G75*
G02*
X113313300Y-135337100I0J-262900D01*
G01*
G37*
G36*
G01*
X115138300Y-135337100D02*
X115138300Y-135862900D01*
G75*
G02*
X114875400Y-136125800I-262900J0D01*
G01*
X114324600Y-136125800D01*
G75*
G02*
X114061700Y-135862900I0J262900D01*
G01*
X114061700Y-135337100D01*
G75*
G02*
X114324600Y-135074200I262900J0D01*
G01*
X114875400Y-135074200D01*
G75*
G02*
X115138300Y-135337100I0J-262900D01*
G01*
G37*
G04 #@! TD*
G04 #@! TO.C,R8*
G36*
G01*
X108661700Y-132062900D02*
X108661700Y-131537100D01*
G75*
G02*
X108924600Y-131274200I262900J0D01*
G01*
X109475400Y-131274200D01*
G75*
G02*
X109738300Y-131537100I0J-262900D01*
G01*
X109738300Y-132062900D01*
G75*
G02*
X109475400Y-132325800I-262900J0D01*
G01*
X108924600Y-132325800D01*
G75*
G02*
X108661700Y-132062900I0J262900D01*
G01*
G37*
G36*
G01*
X110486700Y-132062900D02*
X110486700Y-131537100D01*
G75*
G02*
X110749600Y-131274200I262900J0D01*
G01*
X111300400Y-131274200D01*
G75*
G02*
X111563300Y-131537100I0J-262900D01*
G01*
X111563300Y-132062900D01*
G75*
G02*
X111300400Y-132325800I-262900J0D01*
G01*
X110749600Y-132325800D01*
G75*
G02*
X110486700Y-132062900I0J262900D01*
G01*
G37*
G04 #@! TD*
G04 #@! TO.C,R9*
G36*
G01*
X105486700Y-132062900D02*
X105486700Y-131537100D01*
G75*
G02*
X105749600Y-131274200I262900J0D01*
G01*
X106300400Y-131274200D01*
G75*
G02*
X106563300Y-131537100I0J-262900D01*
G01*
X106563300Y-132062900D01*
G75*
G02*
X106300400Y-132325800I-262900J0D01*
G01*
X105749600Y-132325800D01*
G75*
G02*
X105486700Y-132062900I0J262900D01*
G01*
G37*
G36*
G01*
X103661700Y-132062900D02*
X103661700Y-131537100D01*
G75*
G02*
X103924600Y-131274200I262900J0D01*
G01*
X104475400Y-131274200D01*
G75*
G02*
X104738300Y-131537100I0J-262900D01*
G01*
X104738300Y-132062900D01*
G75*
G02*
X104475400Y-132325800I-262900J0D01*
G01*
X103924600Y-132325800D01*
G75*
G02*
X103661700Y-132062900I0J262900D01*
G01*
G37*
G04 #@! TD*
G04 #@! TO.C,R10*
G36*
G01*
X100036700Y-135962900D02*
X100036700Y-135437100D01*
G75*
G02*
X100299600Y-135174200I262900J0D01*
G01*
X100850400Y-135174200D01*
G75*
G02*
X101113300Y-135437100I0J-262900D01*
G01*
X101113300Y-135962900D01*
G75*
G02*
X100850400Y-136225800I-262900J0D01*
G01*
X100299600Y-136225800D01*
G75*
G02*
X100036700Y-135962900I0J262900D01*
G01*
G37*
G36*
G01*
X101861700Y-135962900D02*
X101861700Y-135437100D01*
G75*
G02*
X102124600Y-135174200I262900J0D01*
G01*
X102675400Y-135174200D01*
G75*
G02*
X102938300Y-135437100I0J-262900D01*
G01*
X102938300Y-135962900D01*
G75*
G02*
X102675400Y-136225800I-262900J0D01*
G01*
X102124600Y-136225800D01*
G75*
G02*
X101861700Y-135962900I0J262900D01*
G01*
G37*
G04 #@! TD*
G04 #@! TO.C,R11*
G36*
G01*
X139983300Y-102897100D02*
X139983300Y-103422900D01*
G75*
G02*
X139720400Y-103685800I-262900J0D01*
G01*
X139169600Y-103685800D01*
G75*
G02*
X138906700Y-103422900I0J262900D01*
G01*
X138906700Y-102897100D01*
G75*
G02*
X139169600Y-102634200I262900J0D01*
G01*
X139720400Y-102634200D01*
G75*
G02*
X139983300Y-102897100I0J-262900D01*
G01*
G37*
G36*
G01*
X141808300Y-102897100D02*
X141808300Y-103422900D01*
G75*
G02*
X141545400Y-103685800I-262900J0D01*
G01*
X140994600Y-103685800D01*
G75*
G02*
X140731700Y-103422900I0J262900D01*
G01*
X140731700Y-102897100D01*
G75*
G02*
X140994600Y-102634200I262900J0D01*
G01*
X141545400Y-102634200D01*
G75*
G02*
X141808300Y-102897100I0J-262900D01*
G01*
G37*
G04 #@! TD*
G04 #@! TO.C,R12*
G36*
G01*
X141830800Y-105437100D02*
X141830800Y-105962900D01*
G75*
G02*
X141567900Y-106225800I-262900J0D01*
G01*
X141017100Y-106225800D01*
G75*
G02*
X140754200Y-105962900I0J262900D01*
G01*
X140754200Y-105437100D01*
G75*
G02*
X141017100Y-105174200I262900J0D01*
G01*
X141567900Y-105174200D01*
G75*
G02*
X141830800Y-105437100I0J-262900D01*
G01*
G37*
G36*
G01*
X140005800Y-105437100D02*
X140005800Y-105962900D01*
G75*
G02*
X139742900Y-106225800I-262900J0D01*
G01*
X139192100Y-106225800D01*
G75*
G02*
X138929200Y-105962900I0J262900D01*
G01*
X138929200Y-105437100D01*
G75*
G02*
X139192100Y-105174200I262900J0D01*
G01*
X139742900Y-105174200D01*
G75*
G02*
X140005800Y-105437100I0J-262900D01*
G01*
G37*
G04 #@! TD*
G04 #@! TO.C,R13*
G36*
G01*
X141833300Y-107977100D02*
X141833300Y-108502900D01*
G75*
G02*
X141570400Y-108765800I-262900J0D01*
G01*
X141019600Y-108765800D01*
G75*
G02*
X140756700Y-108502900I0J262900D01*
G01*
X140756700Y-107977100D01*
G75*
G02*
X141019600Y-107714200I262900J0D01*
G01*
X141570400Y-107714200D01*
G75*
G02*
X141833300Y-107977100I0J-262900D01*
G01*
G37*
G36*
G01*
X140008300Y-107977100D02*
X140008300Y-108502900D01*
G75*
G02*
X139745400Y-108765800I-262900J0D01*
G01*
X139194600Y-108765800D01*
G75*
G02*
X138931700Y-108502900I0J262900D01*
G01*
X138931700Y-107977100D01*
G75*
G02*
X139194600Y-107714200I262900J0D01*
G01*
X139745400Y-107714200D01*
G75*
G02*
X140008300Y-107977100I0J-262900D01*
G01*
G37*
G04 #@! TD*
G04 #@! TO.C,R14*
G36*
G01*
X139945800Y-110517100D02*
X139945800Y-111042900D01*
G75*
G02*
X139682900Y-111305800I-262900J0D01*
G01*
X139132100Y-111305800D01*
G75*
G02*
X138869200Y-111042900I0J262900D01*
G01*
X138869200Y-110517100D01*
G75*
G02*
X139132100Y-110254200I262900J0D01*
G01*
X139682900Y-110254200D01*
G75*
G02*
X139945800Y-110517100I0J-262900D01*
G01*
G37*
G36*
G01*
X141770800Y-110517100D02*
X141770800Y-111042900D01*
G75*
G02*
X141507900Y-111305800I-262900J0D01*
G01*
X140957100Y-111305800D01*
G75*
G02*
X140694200Y-111042900I0J262900D01*
G01*
X140694200Y-110517100D01*
G75*
G02*
X140957100Y-110254200I262900J0D01*
G01*
X141507900Y-110254200D01*
G75*
G02*
X141770800Y-110517100I0J-262900D01*
G01*
G37*
G04 #@! TD*
G04 #@! TO.C,R15*
G36*
G01*
X141863300Y-113057100D02*
X141863300Y-113582900D01*
G75*
G02*
X141600400Y-113845800I-262900J0D01*
G01*
X141049600Y-113845800D01*
G75*
G02*
X140786700Y-113582900I0J262900D01*
G01*
X140786700Y-113057100D01*
G75*
G02*
X141049600Y-112794200I262900J0D01*
G01*
X141600400Y-112794200D01*
G75*
G02*
X141863300Y-113057100I0J-262900D01*
G01*
G37*
G36*
G01*
X140038300Y-113057100D02*
X140038300Y-113582900D01*
G75*
G02*
X139775400Y-113845800I-262900J0D01*
G01*
X139224600Y-113845800D01*
G75*
G02*
X138961700Y-113582900I0J262900D01*
G01*
X138961700Y-113057100D01*
G75*
G02*
X139224600Y-112794200I262900J0D01*
G01*
X139775400Y-112794200D01*
G75*
G02*
X140038300Y-113057100I0J-262900D01*
G01*
G37*
G04 #@! TD*
G04 #@! TO.C,R16*
G36*
G01*
X140008300Y-115597100D02*
X140008300Y-116122900D01*
G75*
G02*
X139745400Y-116385800I-262900J0D01*
G01*
X139194600Y-116385800D01*
G75*
G02*
X138931700Y-116122900I0J262900D01*
G01*
X138931700Y-115597100D01*
G75*
G02*
X139194600Y-115334200I262900J0D01*
G01*
X139745400Y-115334200D01*
G75*
G02*
X140008300Y-115597100I0J-262900D01*
G01*
G37*
G36*
G01*
X141833300Y-115597100D02*
X141833300Y-116122900D01*
G75*
G02*
X141570400Y-116385800I-262900J0D01*
G01*
X141019600Y-116385800D01*
G75*
G02*
X140756700Y-116122900I0J262900D01*
G01*
X140756700Y-115597100D01*
G75*
G02*
X141019600Y-115334200I262900J0D01*
G01*
X141570400Y-115334200D01*
G75*
G02*
X141833300Y-115597100I0J-262900D01*
G01*
G37*
G04 #@! TD*
G04 #@! TO.C,R17*
G36*
G01*
X141910800Y-118137100D02*
X141910800Y-118662900D01*
G75*
G02*
X141647900Y-118925800I-262900J0D01*
G01*
X141097100Y-118925800D01*
G75*
G02*
X140834200Y-118662900I0J262900D01*
G01*
X140834200Y-118137100D01*
G75*
G02*
X141097100Y-117874200I262900J0D01*
G01*
X141647900Y-117874200D01*
G75*
G02*
X141910800Y-118137100I0J-262900D01*
G01*
G37*
G36*
G01*
X140085800Y-118137100D02*
X140085800Y-118662900D01*
G75*
G02*
X139822900Y-118925800I-262900J0D01*
G01*
X139272100Y-118925800D01*
G75*
G02*
X139009200Y-118662900I0J262900D01*
G01*
X139009200Y-118137100D01*
G75*
G02*
X139272100Y-117874200I262900J0D01*
G01*
X139822900Y-117874200D01*
G75*
G02*
X140085800Y-118137100I0J-262900D01*
G01*
G37*
G04 #@! TD*
G04 #@! TO.C,R18*
G36*
G01*
X140008300Y-120677100D02*
X140008300Y-121202900D01*
G75*
G02*
X139745400Y-121465800I-262900J0D01*
G01*
X139194600Y-121465800D01*
G75*
G02*
X138931700Y-121202900I0J262900D01*
G01*
X138931700Y-120677100D01*
G75*
G02*
X139194600Y-120414200I262900J0D01*
G01*
X139745400Y-120414200D01*
G75*
G02*
X140008300Y-120677100I0J-262900D01*
G01*
G37*
G36*
G01*
X141833300Y-120677100D02*
X141833300Y-121202900D01*
G75*
G02*
X141570400Y-121465800I-262900J0D01*
G01*
X141019600Y-121465800D01*
G75*
G02*
X140756700Y-121202900I0J262900D01*
G01*
X140756700Y-120677100D01*
G75*
G02*
X141019600Y-120414200I262900J0D01*
G01*
X141570400Y-120414200D01*
G75*
G02*
X141833300Y-120677100I0J-262900D01*
G01*
G37*
G04 #@! TD*
G04 #@! TO.C,SW1*
G36*
G01*
X128219200Y-103960000D02*
X128219200Y-102360000D01*
G75*
G02*
X128270000Y-102309200I50800J0D01*
G01*
X129870000Y-102309200D01*
G75*
G02*
X129920800Y-102360000I0J-50800D01*
G01*
X129920800Y-103960000D01*
G75*
G02*
X129870000Y-104010800I-50800J0D01*
G01*
X128270000Y-104010800D01*
G75*
G02*
X128219200Y-103960000I0J50800D01*
G01*
G37*
D22*
X136690000Y-120940000D03*
X129070000Y-105700000D03*
X136690000Y-118400000D03*
X129070000Y-108240000D03*
X136690000Y-115860000D03*
X129070000Y-110780000D03*
X136690000Y-113320000D03*
X129070000Y-113320000D03*
X136690000Y-110780000D03*
X129070000Y-115860000D03*
X136690000Y-108240000D03*
X129070000Y-118400000D03*
X136690000Y-105700000D03*
X129070000Y-120940000D03*
X136690000Y-103160000D03*
G04 #@! TD*
G04 #@! TO.C,U2*
G36*
G01*
X135749200Y-135092900D02*
X135749200Y-134817100D01*
G75*
G02*
X135887100Y-134679200I137900J0D01*
G01*
X137212900Y-134679200D01*
G75*
G02*
X137350800Y-134817100I0J-137900D01*
G01*
X137350800Y-135092900D01*
G75*
G02*
X137212900Y-135230800I-137900J0D01*
G01*
X135887100Y-135230800D01*
G75*
G02*
X135749200Y-135092900I0J137900D01*
G01*
G37*
G36*
G01*
X135749200Y-134442900D02*
X135749200Y-134167100D01*
G75*
G02*
X135887100Y-134029200I137900J0D01*
G01*
X137212900Y-134029200D01*
G75*
G02*
X137350800Y-134167100I0J-137900D01*
G01*
X137350800Y-134442900D01*
G75*
G02*
X137212900Y-134580800I-137900J0D01*
G01*
X135887100Y-134580800D01*
G75*
G02*
X135749200Y-134442900I0J137900D01*
G01*
G37*
G36*
G01*
X135749200Y-133792900D02*
X135749200Y-133517100D01*
G75*
G02*
X135887100Y-133379200I137900J0D01*
G01*
X137212900Y-133379200D01*
G75*
G02*
X137350800Y-133517100I0J-137900D01*
G01*
X137350800Y-133792900D01*
G75*
G02*
X137212900Y-133930800I-137900J0D01*
G01*
X135887100Y-133930800D01*
G75*
G02*
X135749200Y-133792900I0J137900D01*
G01*
G37*
G36*
G01*
X135749200Y-133142900D02*
X135749200Y-132867100D01*
G75*
G02*
X135887100Y-132729200I137900J0D01*
G01*
X137212900Y-132729200D01*
G75*
G02*
X137350800Y-132867100I0J-137900D01*
G01*
X137350800Y-133142900D01*
G75*
G02*
X137212900Y-133280800I-137900J0D01*
G01*
X135887100Y-133280800D01*
G75*
G02*
X135749200Y-133142900I0J137900D01*
G01*
G37*
G36*
G01*
X135749200Y-132492900D02*
X135749200Y-132217100D01*
G75*
G02*
X135887100Y-132079200I137900J0D01*
G01*
X137212900Y-132079200D01*
G75*
G02*
X137350800Y-132217100I0J-137900D01*
G01*
X137350800Y-132492900D01*
G75*
G02*
X137212900Y-132630800I-137900J0D01*
G01*
X135887100Y-132630800D01*
G75*
G02*
X135749200Y-132492900I0J137900D01*
G01*
G37*
G36*
G01*
X135749200Y-131842900D02*
X135749200Y-131567100D01*
G75*
G02*
X135887100Y-131429200I137900J0D01*
G01*
X137212900Y-131429200D01*
G75*
G02*
X137350800Y-131567100I0J-137900D01*
G01*
X137350800Y-131842900D01*
G75*
G02*
X137212900Y-131980800I-137900J0D01*
G01*
X135887100Y-131980800D01*
G75*
G02*
X135749200Y-131842900I0J137900D01*
G01*
G37*
G36*
G01*
X135749200Y-131192900D02*
X135749200Y-130917100D01*
G75*
G02*
X135887100Y-130779200I137900J0D01*
G01*
X137212900Y-130779200D01*
G75*
G02*
X137350800Y-130917100I0J-137900D01*
G01*
X137350800Y-131192900D01*
G75*
G02*
X137212900Y-131330800I-137900J0D01*
G01*
X135887100Y-131330800D01*
G75*
G02*
X135749200Y-131192900I0J137900D01*
G01*
G37*
G36*
G01*
X135749200Y-130542900D02*
X135749200Y-130267100D01*
G75*
G02*
X135887100Y-130129200I137900J0D01*
G01*
X137212900Y-130129200D01*
G75*
G02*
X137350800Y-130267100I0J-137900D01*
G01*
X137350800Y-130542900D01*
G75*
G02*
X137212900Y-130680800I-137900J0D01*
G01*
X135887100Y-130680800D01*
G75*
G02*
X135749200Y-130542900I0J137900D01*
G01*
G37*
G36*
G01*
X129949200Y-130542900D02*
X129949200Y-130267100D01*
G75*
G02*
X130087100Y-130129200I137900J0D01*
G01*
X131412900Y-130129200D01*
G75*
G02*
X131550800Y-130267100I0J-137900D01*
G01*
X131550800Y-130542900D01*
G75*
G02*
X131412900Y-130680800I-137900J0D01*
G01*
X130087100Y-130680800D01*
G75*
G02*
X129949200Y-130542900I0J137900D01*
G01*
G37*
G36*
G01*
X129949200Y-131192900D02*
X129949200Y-130917100D01*
G75*
G02*
X130087100Y-130779200I137900J0D01*
G01*
X131412900Y-130779200D01*
G75*
G02*
X131550800Y-130917100I0J-137900D01*
G01*
X131550800Y-131192900D01*
G75*
G02*
X131412900Y-131330800I-137900J0D01*
G01*
X130087100Y-131330800D01*
G75*
G02*
X129949200Y-131192900I0J137900D01*
G01*
G37*
G36*
G01*
X129949200Y-131842900D02*
X129949200Y-131567100D01*
G75*
G02*
X130087100Y-131429200I137900J0D01*
G01*
X131412900Y-131429200D01*
G75*
G02*
X131550800Y-131567100I0J-137900D01*
G01*
X131550800Y-131842900D01*
G75*
G02*
X131412900Y-131980800I-137900J0D01*
G01*
X130087100Y-131980800D01*
G75*
G02*
X129949200Y-131842900I0J137900D01*
G01*
G37*
G36*
G01*
X129949200Y-132492900D02*
X129949200Y-132217100D01*
G75*
G02*
X130087100Y-132079200I137900J0D01*
G01*
X131412900Y-132079200D01*
G75*
G02*
X131550800Y-132217100I0J-137900D01*
G01*
X131550800Y-132492900D01*
G75*
G02*
X131412900Y-132630800I-137900J0D01*
G01*
X130087100Y-132630800D01*
G75*
G02*
X129949200Y-132492900I0J137900D01*
G01*
G37*
G36*
G01*
X129949200Y-133142900D02*
X129949200Y-132867100D01*
G75*
G02*
X130087100Y-132729200I137900J0D01*
G01*
X131412900Y-132729200D01*
G75*
G02*
X131550800Y-132867100I0J-137900D01*
G01*
X131550800Y-133142900D01*
G75*
G02*
X131412900Y-133280800I-137900J0D01*
G01*
X130087100Y-133280800D01*
G75*
G02*
X129949200Y-133142900I0J137900D01*
G01*
G37*
G36*
G01*
X129949200Y-133792900D02*
X129949200Y-133517100D01*
G75*
G02*
X130087100Y-133379200I137900J0D01*
G01*
X131412900Y-133379200D01*
G75*
G02*
X131550800Y-133517100I0J-137900D01*
G01*
X131550800Y-133792900D01*
G75*
G02*
X131412900Y-133930800I-137900J0D01*
G01*
X130087100Y-133930800D01*
G75*
G02*
X129949200Y-133792900I0J137900D01*
G01*
G37*
G36*
G01*
X129949200Y-134442900D02*
X129949200Y-134167100D01*
G75*
G02*
X130087100Y-134029200I137900J0D01*
G01*
X131412900Y-134029200D01*
G75*
G02*
X131550800Y-134167100I0J-137900D01*
G01*
X131550800Y-134442900D01*
G75*
G02*
X131412900Y-134580800I-137900J0D01*
G01*
X130087100Y-134580800D01*
G75*
G02*
X129949200Y-134442900I0J137900D01*
G01*
G37*
G36*
G01*
X129949200Y-135092900D02*
X129949200Y-134817100D01*
G75*
G02*
X130087100Y-134679200I137900J0D01*
G01*
X131412900Y-134679200D01*
G75*
G02*
X131550800Y-134817100I0J-137900D01*
G01*
X131550800Y-135092900D01*
G75*
G02*
X131412900Y-135230800I-137900J0D01*
G01*
X130087100Y-135230800D01*
G75*
G02*
X129949200Y-135092900I0J137900D01*
G01*
G37*
G04 #@! TD*
G04 #@! TO.C,R19*
G36*
G01*
X89637100Y-129474200D02*
X90162900Y-129474200D01*
G75*
G02*
X90425800Y-129737100I0J-262900D01*
G01*
X90425800Y-130287900D01*
G75*
G02*
X90162900Y-130550800I-262900J0D01*
G01*
X89637100Y-130550800D01*
G75*
G02*
X89374200Y-130287900I0J262900D01*
G01*
X89374200Y-129737100D01*
G75*
G02*
X89637100Y-129474200I262900J0D01*
G01*
G37*
G36*
G01*
X89637100Y-127649200D02*
X90162900Y-127649200D01*
G75*
G02*
X90425800Y-127912100I0J-262900D01*
G01*
X90425800Y-128462900D01*
G75*
G02*
X90162900Y-128725800I-262900J0D01*
G01*
X89637100Y-128725800D01*
G75*
G02*
X89374200Y-128462900I0J262900D01*
G01*
X89374200Y-127912100D01*
G75*
G02*
X89637100Y-127649200I262900J0D01*
G01*
G37*
G04 #@! TD*
G04 #@! TO.C,R20*
G36*
G01*
X91437100Y-127661700D02*
X91962900Y-127661700D01*
G75*
G02*
X92225800Y-127924600I0J-262900D01*
G01*
X92225800Y-128475400D01*
G75*
G02*
X91962900Y-128738300I-262900J0D01*
G01*
X91437100Y-128738300D01*
G75*
G02*
X91174200Y-128475400I0J262900D01*
G01*
X91174200Y-127924600D01*
G75*
G02*
X91437100Y-127661700I262900J0D01*
G01*
G37*
G36*
G01*
X91437100Y-129486700D02*
X91962900Y-129486700D01*
G75*
G02*
X92225800Y-129749600I0J-262900D01*
G01*
X92225800Y-130300400D01*
G75*
G02*
X91962900Y-130563300I-262900J0D01*
G01*
X91437100Y-130563300D01*
G75*
G02*
X91174200Y-130300400I0J262900D01*
G01*
X91174200Y-129749600D01*
G75*
G02*
X91437100Y-129486700I262900J0D01*
G01*
G37*
G04 #@! TD*
D23*
G04 #@! TO.C,H1*
X36000000Y-144000000D03*
G04 #@! TD*
G04 #@! TO.C,H2*
X159000000Y-144000000D03*
G04 #@! TD*
G04 #@! TO.C,H3*
X36000000Y-104000000D03*
G04 #@! TD*
G04 #@! TO.C,H4*
X159000000Y-104000000D03*
G04 #@! TD*
M02*
