M48
; DRILL file {KiCad 5.1.9-1.fc33} date Tue Mar 16 11:41:09 2021
; FORMAT={-:-/ absolute / inch / decimal}
; #@! TF.CreationDate,2021-03-16T11:41:09-04:00
; #@! TF.GenerationSoftware,Kicad,Pcbnew,5.1.9-1.fc33
FMAT,2
INCH
T1C0.0100
T2C0.0276
T3C0.0315
T4C0.0394
T5C0.0469
T6C0.1220
T7C0.1260
T8C0.0630
T9C0.0787
%
G90
G05
T1
X3.9764Y-4.9921
X4.0748Y-5.0394
X4.2323Y-4.9921
X4.252Y-4.7913
X4.3465Y-4.7913
X4.3858Y-4.9921
X5.1929Y-5.189
X5.1969Y-5.2835
X5.3228Y-5.3543
X5.4843Y-5.2283
T3
X5.0815Y-4.0614
X5.0815Y-4.1614
X5.0815Y-4.2614
X5.0815Y-4.3614
X5.0815Y-4.4614
X5.0815Y-4.5614
X5.0815Y-4.6614
X5.0815Y-4.7614
X5.3815Y-4.0614
X5.3815Y-4.1614
X5.3815Y-4.2614
X5.3815Y-4.3614
X5.3815Y-4.4614
X5.3815Y-4.5614
X5.3815Y-4.6614
X5.3815Y-4.7614
T4
X2.8469Y-4.0602
X2.8469Y-4.1602
X2.8469Y-4.7602
X2.8469Y-4.8602
X2.9469Y-4.0602
X2.9469Y-4.1602
X2.9469Y-4.7602
X2.9469Y-4.8602
X3.0469Y-4.0602
X3.0469Y-4.1602
X3.0469Y-4.7602
X3.0469Y-4.8602
X3.1469Y-4.0602
X3.1469Y-4.1602
X3.1469Y-4.8602
X3.2469Y-4.0602
X3.2469Y-4.1602
X3.2469Y-4.8602
X3.3469Y-4.0602
X3.3469Y-4.1602
X3.3469Y-4.8602
X3.4469Y-4.0602
X3.4469Y-4.8602
X3.5469Y-4.0602
X3.5469Y-4.8602
X3.6469Y-4.0602
X3.6469Y-4.8602
X3.7469Y-4.0602
X3.7469Y-4.8602
X3.8469Y-4.0602
X3.8469Y-4.8602
X3.9469Y-4.0602
X3.9469Y-4.8602
X4.0469Y-4.0602
X4.0469Y-4.8602
X4.0522Y-5.4724
X4.0522Y-5.5709
X4.1349Y-5.5709
X4.1469Y-4.0602
X4.1469Y-4.8602
X4.2373Y-5.5709
X4.2469Y-4.2102
X4.2469Y-4.3102
X4.2469Y-4.4102
X4.2469Y-4.5102
X4.2469Y-4.6102
X4.2469Y-4.7102
X4.32Y-5.4724
X4.32Y-5.5709
X4.3469Y-4.2102
X4.3469Y-4.3102
X4.3469Y-4.4102
X4.3469Y-4.5102
X4.3469Y-4.6102
X4.3469Y-4.7102
X4.5157Y-4.2118
X4.5157Y-4.3118
X4.5157Y-4.4118
X4.5157Y-4.5118
X4.5157Y-4.6118
X4.5157Y-4.7118
T5
X2.9201Y-5.3555
X2.9201Y-5.5555
X2.9652Y-5.4555
X3.0102Y-5.3555
X3.0102Y-5.5555
X3.0553Y-5.4555
X3.1004Y-5.3555
X3.1004Y-5.5555
X3.1455Y-5.4555
X3.1906Y-5.3555
X3.1906Y-5.5555
X3.2356Y-5.4555
X3.2807Y-5.3555
X3.2807Y-5.5555
X3.3258Y-5.4555
X5.0804Y-5.4756
X5.1343Y-5.5874
X5.1882Y-5.4756
X5.2422Y-5.5874
X5.2961Y-5.4756
X5.35Y-5.5874
X5.404Y-5.4756
X5.4579Y-5.5874
X5.5119Y-5.4756
T6
X4.8042Y-5.5315
X5.788Y-5.5355
T7
X1.4173Y-4.0945
X1.4173Y-5.6693
X2.6183Y-5.4555
X3.6022Y-5.4555
X6.2598Y-4.0945
X6.2598Y-5.6693
T8
X2.0079Y-5.7874
T9
X2.0499Y-4.0498
X2.0499Y-4.8702
X4.3089Y-4.0498
X4.3089Y-4.8702
T2
X3.9204Y-5.6555G85X3.9204Y-5.7146
G05
X4.4519Y-5.6555G85X4.4519Y-5.7146
G05
T4
X1.8307Y-5.6791G85X1.8307Y-5.7382
G05
X1.9685Y-5.4331G85X2.0472Y-5.4331
G05
X1.9823Y-5.6693G85X2.0335Y-5.6693
G05
X2.185Y-5.6791G85X2.185Y-5.7382
G05
X4.2156Y-5.7205G85X4.1566Y-5.7205
G05
T0
M30
