G04 #@! TF.GenerationSoftware,KiCad,Pcbnew,5.1.9-1.fc33*
G04 #@! TF.CreationDate,2021-03-16T11:41:12-04:00*
G04 #@! TF.ProjectId,terminal,7465726d-696e-4616-9c2e-6b696361645f,rev?*
G04 #@! TF.SameCoordinates,Original*
G04 #@! TF.FileFunction,Legend,Bot*
G04 #@! TF.FilePolarity,Positive*
%FSLAX46Y46*%
G04 Gerber Fmt 4.6, Leading zero omitted, Abs format (unit mm)*
G04 Created by KiCad (PCBNEW 5.1.9-1.fc33) date 2021-03-16 11:41:12*
%MOMM*%
%LPD*%
G01*
G04 APERTURE LIST*
%ADD10C,0.120000*%
%ADD11C,0.100000*%
G04 APERTURE END LIST*
D10*
G04 #@! TO.C,Q1*
X111680000Y-135460000D02*
X110750000Y-135460000D01*
X108520000Y-135460000D02*
X109450000Y-135460000D01*
X108520000Y-135460000D02*
X108520000Y-133300000D01*
X111680000Y-135460000D02*
X111680000Y-134000000D01*
G04 #@! TO.C,Q2*
X106680000Y-135460000D02*
X106680000Y-134000000D01*
X103520000Y-135460000D02*
X103520000Y-133300000D01*
X103520000Y-135460000D02*
X104450000Y-135460000D01*
X106680000Y-135460000D02*
X105750000Y-135460000D01*
G04 #@! TO.C,C1*
X137990000Y-135108767D02*
X137990000Y-134816233D01*
X139010000Y-135108767D02*
X139010000Y-134816233D01*
G04 #@! TO.C,C2*
X140610000Y-135108767D02*
X140610000Y-134816233D01*
X139590000Y-135108767D02*
X139590000Y-134816233D01*
G04 #@! TO.C,C3*
X101010000Y-138916233D02*
X101010000Y-139208767D01*
X99990000Y-138916233D02*
X99990000Y-139208767D01*
G04 #@! TO.C,C4*
X129410000Y-135283767D02*
X129410000Y-134991233D01*
X128390000Y-135283767D02*
X128390000Y-134991233D01*
G04 #@! TO.C,C5*
X128390000Y-131883767D02*
X128390000Y-131591233D01*
X129410000Y-131883767D02*
X129410000Y-131591233D01*
G04 #@! TO.C,R1*
X82877500Y-130167224D02*
X82877500Y-129657776D01*
X83922500Y-130167224D02*
X83922500Y-129657776D01*
G04 #@! TO.C,R2*
X85722500Y-130142224D02*
X85722500Y-129632776D01*
X84677500Y-130142224D02*
X84677500Y-129632776D01*
G04 #@! TO.C,R3*
X79277500Y-130142224D02*
X79277500Y-129632776D01*
X80322500Y-130142224D02*
X80322500Y-129632776D01*
G04 #@! TO.C,R4*
X82122500Y-130142224D02*
X82122500Y-129632776D01*
X81077500Y-130142224D02*
X81077500Y-129632776D01*
G04 #@! TO.C,R5*
X75677500Y-130142224D02*
X75677500Y-129632776D01*
X76722500Y-130142224D02*
X76722500Y-129632776D01*
G04 #@! TO.C,R6*
X78522500Y-130167224D02*
X78522500Y-129657776D01*
X77477500Y-130167224D02*
X77477500Y-129657776D01*
G04 #@! TO.C,R7*
X113942224Y-135077500D02*
X113432776Y-135077500D01*
X113942224Y-136122500D02*
X113432776Y-136122500D01*
G04 #@! TO.C,R8*
X109857776Y-131277500D02*
X110367224Y-131277500D01*
X109857776Y-132322500D02*
X110367224Y-132322500D01*
G04 #@! TO.C,R9*
X104857776Y-132322500D02*
X105367224Y-132322500D01*
X104857776Y-131277500D02*
X105367224Y-131277500D01*
G04 #@! TO.C,R10*
X101232776Y-135177500D02*
X101742224Y-135177500D01*
X101232776Y-136222500D02*
X101742224Y-136222500D01*
G04 #@! TO.C,R11*
X140612224Y-102637500D02*
X140102776Y-102637500D01*
X140612224Y-103682500D02*
X140102776Y-103682500D01*
G04 #@! TO.C,R12*
X140634724Y-106222500D02*
X140125276Y-106222500D01*
X140634724Y-105177500D02*
X140125276Y-105177500D01*
G04 #@! TO.C,R13*
X140637224Y-108762500D02*
X140127776Y-108762500D01*
X140637224Y-107717500D02*
X140127776Y-107717500D01*
G04 #@! TO.C,R14*
X140574724Y-110257500D02*
X140065276Y-110257500D01*
X140574724Y-111302500D02*
X140065276Y-111302500D01*
G04 #@! TO.C,R15*
X140667224Y-113842500D02*
X140157776Y-113842500D01*
X140667224Y-112797500D02*
X140157776Y-112797500D01*
G04 #@! TO.C,R16*
X140637224Y-115337500D02*
X140127776Y-115337500D01*
X140637224Y-116382500D02*
X140127776Y-116382500D01*
G04 #@! TO.C,R17*
X140714724Y-118922500D02*
X140205276Y-118922500D01*
X140714724Y-117877500D02*
X140205276Y-117877500D01*
G04 #@! TO.C,R18*
X140637224Y-120417500D02*
X140127776Y-120417500D01*
X140637224Y-121462500D02*
X140127776Y-121462500D01*
G04 #@! TO.C,U2*
X133650000Y-135415000D02*
X130050000Y-135415000D01*
X133650000Y-135415000D02*
X135850000Y-135415000D01*
X133650000Y-129945000D02*
X131450000Y-129945000D01*
X133650000Y-129945000D02*
X135850000Y-129945000D01*
G04 #@! TO.C,R19*
X89377500Y-128845276D02*
X89377500Y-129354724D01*
X90422500Y-128845276D02*
X90422500Y-129354724D01*
G04 #@! TO.C,R20*
X92222500Y-128857776D02*
X92222500Y-129367224D01*
X91177500Y-128857776D02*
X91177500Y-129367224D01*
G04 #@! TO.C,Q1*
D11*
X112783333Y-133533333D02*
X112750000Y-133466666D01*
X112683333Y-133400000D01*
X112583333Y-133300000D01*
X112550000Y-133233333D01*
X112550000Y-133166666D01*
X112716666Y-133200000D02*
X112683333Y-133133333D01*
X112616666Y-133066666D01*
X112483333Y-133033333D01*
X112250000Y-133033333D01*
X112116666Y-133066666D01*
X112050000Y-133133333D01*
X112016666Y-133200000D01*
X112016666Y-133333333D01*
X112050000Y-133400000D01*
X112116666Y-133466666D01*
X112250000Y-133500000D01*
X112483333Y-133500000D01*
X112616666Y-133466666D01*
X112683333Y-133400000D01*
X112716666Y-133333333D01*
X112716666Y-133200000D01*
X112716666Y-134166666D02*
X112716666Y-133766666D01*
X112716666Y-133966666D02*
X112016666Y-133966666D01*
X112116666Y-133900000D01*
X112183333Y-133833333D01*
X112216666Y-133766666D01*
G04 #@! TO.C,Q2*
X107783333Y-133533333D02*
X107750000Y-133466666D01*
X107683333Y-133400000D01*
X107583333Y-133300000D01*
X107550000Y-133233333D01*
X107550000Y-133166666D01*
X107716666Y-133200000D02*
X107683333Y-133133333D01*
X107616666Y-133066666D01*
X107483333Y-133033333D01*
X107250000Y-133033333D01*
X107116666Y-133066666D01*
X107050000Y-133133333D01*
X107016666Y-133200000D01*
X107016666Y-133333333D01*
X107050000Y-133400000D01*
X107116666Y-133466666D01*
X107250000Y-133500000D01*
X107483333Y-133500000D01*
X107616666Y-133466666D01*
X107683333Y-133400000D01*
X107716666Y-133333333D01*
X107716666Y-133200000D01*
X107083333Y-133766666D02*
X107050000Y-133800000D01*
X107016666Y-133866666D01*
X107016666Y-134033333D01*
X107050000Y-134100000D01*
X107083333Y-134133333D01*
X107150000Y-134166666D01*
X107216666Y-134166666D01*
X107316666Y-134133333D01*
X107716666Y-133733333D01*
X107716666Y-134166666D01*
G04 #@! TO.C,C1*
X138750000Y-132483333D02*
X138783333Y-132450000D01*
X138816666Y-132350000D01*
X138816666Y-132283333D01*
X138783333Y-132183333D01*
X138716666Y-132116666D01*
X138650000Y-132083333D01*
X138516666Y-132050000D01*
X138416666Y-132050000D01*
X138283333Y-132083333D01*
X138216666Y-132116666D01*
X138150000Y-132183333D01*
X138116666Y-132283333D01*
X138116666Y-132350000D01*
X138150000Y-132450000D01*
X138183333Y-132483333D01*
X138816666Y-133150000D02*
X138816666Y-132750000D01*
X138816666Y-132950000D02*
X138116666Y-132950000D01*
X138216666Y-132883333D01*
X138283333Y-132816666D01*
X138316666Y-132750000D01*
G04 #@! TO.C,C2*
X140350000Y-132483333D02*
X140383333Y-132450000D01*
X140416666Y-132350000D01*
X140416666Y-132283333D01*
X140383333Y-132183333D01*
X140316666Y-132116666D01*
X140250000Y-132083333D01*
X140116666Y-132050000D01*
X140016666Y-132050000D01*
X139883333Y-132083333D01*
X139816666Y-132116666D01*
X139750000Y-132183333D01*
X139716666Y-132283333D01*
X139716666Y-132350000D01*
X139750000Y-132450000D01*
X139783333Y-132483333D01*
X139783333Y-132750000D02*
X139750000Y-132783333D01*
X139716666Y-132850000D01*
X139716666Y-133016666D01*
X139750000Y-133083333D01*
X139783333Y-133116666D01*
X139850000Y-133150000D01*
X139916666Y-133150000D01*
X140016666Y-133116666D01*
X140416666Y-132716666D01*
X140416666Y-133150000D01*
G04 #@! TO.C,C3*
X100850000Y-141308333D02*
X100883333Y-141275000D01*
X100916666Y-141175000D01*
X100916666Y-141108333D01*
X100883333Y-141008333D01*
X100816666Y-140941666D01*
X100750000Y-140908333D01*
X100616666Y-140875000D01*
X100516666Y-140875000D01*
X100383333Y-140908333D01*
X100316666Y-140941666D01*
X100250000Y-141008333D01*
X100216666Y-141108333D01*
X100216666Y-141175000D01*
X100250000Y-141275000D01*
X100283333Y-141308333D01*
X100216666Y-141541666D02*
X100216666Y-141975000D01*
X100483333Y-141741666D01*
X100483333Y-141841666D01*
X100516666Y-141908333D01*
X100550000Y-141941666D01*
X100616666Y-141975000D01*
X100783333Y-141975000D01*
X100850000Y-141941666D01*
X100883333Y-141908333D01*
X100916666Y-141841666D01*
X100916666Y-141641666D01*
X100883333Y-141575000D01*
X100850000Y-141541666D01*
G04 #@! TO.C,C4*
X127850000Y-134958333D02*
X127883333Y-134925000D01*
X127916666Y-134825000D01*
X127916666Y-134758333D01*
X127883333Y-134658333D01*
X127816666Y-134591666D01*
X127750000Y-134558333D01*
X127616666Y-134525000D01*
X127516666Y-134525000D01*
X127383333Y-134558333D01*
X127316666Y-134591666D01*
X127250000Y-134658333D01*
X127216666Y-134758333D01*
X127216666Y-134825000D01*
X127250000Y-134925000D01*
X127283333Y-134958333D01*
X127450000Y-135558333D02*
X127916666Y-135558333D01*
X127183333Y-135391666D02*
X127683333Y-135225000D01*
X127683333Y-135658333D01*
G04 #@! TO.C,C5*
X127750000Y-131658333D02*
X127783333Y-131625000D01*
X127816666Y-131525000D01*
X127816666Y-131458333D01*
X127783333Y-131358333D01*
X127716666Y-131291666D01*
X127650000Y-131258333D01*
X127516666Y-131225000D01*
X127416666Y-131225000D01*
X127283333Y-131258333D01*
X127216666Y-131291666D01*
X127150000Y-131358333D01*
X127116666Y-131458333D01*
X127116666Y-131525000D01*
X127150000Y-131625000D01*
X127183333Y-131658333D01*
X127116666Y-132291666D02*
X127116666Y-131958333D01*
X127450000Y-131925000D01*
X127416666Y-131958333D01*
X127383333Y-132025000D01*
X127383333Y-132191666D01*
X127416666Y-132258333D01*
X127450000Y-132291666D01*
X127516666Y-132325000D01*
X127683333Y-132325000D01*
X127750000Y-132291666D01*
X127783333Y-132258333D01*
X127816666Y-132191666D01*
X127816666Y-132025000D01*
X127783333Y-131958333D01*
X127750000Y-131925000D01*
G04 #@! TO.C,R1*
X83616666Y-127383333D02*
X83283333Y-127150000D01*
X83616666Y-126983333D02*
X82916666Y-126983333D01*
X82916666Y-127250000D01*
X82950000Y-127316666D01*
X82983333Y-127350000D01*
X83050000Y-127383333D01*
X83150000Y-127383333D01*
X83216666Y-127350000D01*
X83250000Y-127316666D01*
X83283333Y-127250000D01*
X83283333Y-126983333D01*
X83616666Y-128050000D02*
X83616666Y-127650000D01*
X83616666Y-127850000D02*
X82916666Y-127850000D01*
X83016666Y-127783333D01*
X83083333Y-127716666D01*
X83116666Y-127650000D01*
G04 #@! TO.C,R2*
X85516666Y-127383333D02*
X85183333Y-127150000D01*
X85516666Y-126983333D02*
X84816666Y-126983333D01*
X84816666Y-127250000D01*
X84850000Y-127316666D01*
X84883333Y-127350000D01*
X84950000Y-127383333D01*
X85050000Y-127383333D01*
X85116666Y-127350000D01*
X85150000Y-127316666D01*
X85183333Y-127250000D01*
X85183333Y-126983333D01*
X84883333Y-127650000D02*
X84850000Y-127683333D01*
X84816666Y-127750000D01*
X84816666Y-127916666D01*
X84850000Y-127983333D01*
X84883333Y-128016666D01*
X84950000Y-128050000D01*
X85016666Y-128050000D01*
X85116666Y-128016666D01*
X85516666Y-127616666D01*
X85516666Y-128050000D01*
G04 #@! TO.C,R3*
X80016666Y-127383333D02*
X79683333Y-127150000D01*
X80016666Y-126983333D02*
X79316666Y-126983333D01*
X79316666Y-127250000D01*
X79350000Y-127316666D01*
X79383333Y-127350000D01*
X79450000Y-127383333D01*
X79550000Y-127383333D01*
X79616666Y-127350000D01*
X79650000Y-127316666D01*
X79683333Y-127250000D01*
X79683333Y-126983333D01*
X79316666Y-127616666D02*
X79316666Y-128050000D01*
X79583333Y-127816666D01*
X79583333Y-127916666D01*
X79616666Y-127983333D01*
X79650000Y-128016666D01*
X79716666Y-128050000D01*
X79883333Y-128050000D01*
X79950000Y-128016666D01*
X79983333Y-127983333D01*
X80016666Y-127916666D01*
X80016666Y-127716666D01*
X79983333Y-127650000D01*
X79950000Y-127616666D01*
G04 #@! TO.C,R4*
X81916666Y-127383333D02*
X81583333Y-127150000D01*
X81916666Y-126983333D02*
X81216666Y-126983333D01*
X81216666Y-127250000D01*
X81250000Y-127316666D01*
X81283333Y-127350000D01*
X81350000Y-127383333D01*
X81450000Y-127383333D01*
X81516666Y-127350000D01*
X81550000Y-127316666D01*
X81583333Y-127250000D01*
X81583333Y-126983333D01*
X81450000Y-127983333D02*
X81916666Y-127983333D01*
X81183333Y-127816666D02*
X81683333Y-127650000D01*
X81683333Y-128083333D01*
G04 #@! TO.C,R5*
X76516666Y-127383333D02*
X76183333Y-127150000D01*
X76516666Y-126983333D02*
X75816666Y-126983333D01*
X75816666Y-127250000D01*
X75850000Y-127316666D01*
X75883333Y-127350000D01*
X75950000Y-127383333D01*
X76050000Y-127383333D01*
X76116666Y-127350000D01*
X76150000Y-127316666D01*
X76183333Y-127250000D01*
X76183333Y-126983333D01*
X75816666Y-128016666D02*
X75816666Y-127683333D01*
X76150000Y-127650000D01*
X76116666Y-127683333D01*
X76083333Y-127750000D01*
X76083333Y-127916666D01*
X76116666Y-127983333D01*
X76150000Y-128016666D01*
X76216666Y-128050000D01*
X76383333Y-128050000D01*
X76450000Y-128016666D01*
X76483333Y-127983333D01*
X76516666Y-127916666D01*
X76516666Y-127750000D01*
X76483333Y-127683333D01*
X76450000Y-127650000D01*
G04 #@! TO.C,R6*
X78316666Y-127383333D02*
X77983333Y-127150000D01*
X78316666Y-126983333D02*
X77616666Y-126983333D01*
X77616666Y-127250000D01*
X77650000Y-127316666D01*
X77683333Y-127350000D01*
X77750000Y-127383333D01*
X77850000Y-127383333D01*
X77916666Y-127350000D01*
X77950000Y-127316666D01*
X77983333Y-127250000D01*
X77983333Y-126983333D01*
X77616666Y-127983333D02*
X77616666Y-127850000D01*
X77650000Y-127783333D01*
X77683333Y-127750000D01*
X77783333Y-127683333D01*
X77916666Y-127650000D01*
X78183333Y-127650000D01*
X78250000Y-127683333D01*
X78283333Y-127716666D01*
X78316666Y-127783333D01*
X78316666Y-127916666D01*
X78283333Y-127983333D01*
X78250000Y-128016666D01*
X78183333Y-128050000D01*
X78016666Y-128050000D01*
X77950000Y-128016666D01*
X77916666Y-127983333D01*
X77883333Y-127916666D01*
X77883333Y-127783333D01*
X77916666Y-127716666D01*
X77950000Y-127683333D01*
X78016666Y-127650000D01*
G04 #@! TO.C,R7*
X116291666Y-135916666D02*
X116525000Y-135583333D01*
X116691666Y-135916666D02*
X116691666Y-135216666D01*
X116425000Y-135216666D01*
X116358333Y-135250000D01*
X116325000Y-135283333D01*
X116291666Y-135350000D01*
X116291666Y-135450000D01*
X116325000Y-135516666D01*
X116358333Y-135550000D01*
X116425000Y-135583333D01*
X116691666Y-135583333D01*
X116058333Y-135216666D02*
X115591666Y-135216666D01*
X115891666Y-135916666D01*
G04 #@! TO.C,R8*
X110229166Y-130616666D02*
X110462500Y-130283333D01*
X110629166Y-130616666D02*
X110629166Y-129916666D01*
X110362500Y-129916666D01*
X110295833Y-129950000D01*
X110262500Y-129983333D01*
X110229166Y-130050000D01*
X110229166Y-130150000D01*
X110262500Y-130216666D01*
X110295833Y-130250000D01*
X110362500Y-130283333D01*
X110629166Y-130283333D01*
X109829166Y-130216666D02*
X109895833Y-130183333D01*
X109929166Y-130150000D01*
X109962500Y-130083333D01*
X109962500Y-130050000D01*
X109929166Y-129983333D01*
X109895833Y-129950000D01*
X109829166Y-129916666D01*
X109695833Y-129916666D01*
X109629166Y-129950000D01*
X109595833Y-129983333D01*
X109562500Y-130050000D01*
X109562500Y-130083333D01*
X109595833Y-130150000D01*
X109629166Y-130183333D01*
X109695833Y-130216666D01*
X109829166Y-130216666D01*
X109895833Y-130250000D01*
X109929166Y-130283333D01*
X109962500Y-130350000D01*
X109962500Y-130483333D01*
X109929166Y-130550000D01*
X109895833Y-130583333D01*
X109829166Y-130616666D01*
X109695833Y-130616666D01*
X109629166Y-130583333D01*
X109595833Y-130550000D01*
X109562500Y-130483333D01*
X109562500Y-130350000D01*
X109595833Y-130283333D01*
X109629166Y-130250000D01*
X109695833Y-130216666D01*
G04 #@! TO.C,R9*
X105341666Y-130616666D02*
X105575000Y-130283333D01*
X105741666Y-130616666D02*
X105741666Y-129916666D01*
X105475000Y-129916666D01*
X105408333Y-129950000D01*
X105375000Y-129983333D01*
X105341666Y-130050000D01*
X105341666Y-130150000D01*
X105375000Y-130216666D01*
X105408333Y-130250000D01*
X105475000Y-130283333D01*
X105741666Y-130283333D01*
X105008333Y-130616666D02*
X104875000Y-130616666D01*
X104808333Y-130583333D01*
X104775000Y-130550000D01*
X104708333Y-130450000D01*
X104675000Y-130316666D01*
X104675000Y-130050000D01*
X104708333Y-129983333D01*
X104741666Y-129950000D01*
X104808333Y-129916666D01*
X104941666Y-129916666D01*
X105008333Y-129950000D01*
X105041666Y-129983333D01*
X105075000Y-130050000D01*
X105075000Y-130216666D01*
X105041666Y-130283333D01*
X105008333Y-130316666D01*
X104941666Y-130350000D01*
X104808333Y-130350000D01*
X104741666Y-130316666D01*
X104708333Y-130283333D01*
X104675000Y-130216666D01*
G04 #@! TO.C,R10*
X101950000Y-134816666D02*
X102183333Y-134483333D01*
X102350000Y-134816666D02*
X102350000Y-134116666D01*
X102083333Y-134116666D01*
X102016666Y-134150000D01*
X101983333Y-134183333D01*
X101950000Y-134250000D01*
X101950000Y-134350000D01*
X101983333Y-134416666D01*
X102016666Y-134450000D01*
X102083333Y-134483333D01*
X102350000Y-134483333D01*
X101283333Y-134816666D02*
X101683333Y-134816666D01*
X101483333Y-134816666D02*
X101483333Y-134116666D01*
X101550000Y-134216666D01*
X101616666Y-134283333D01*
X101683333Y-134316666D01*
X100850000Y-134116666D02*
X100783333Y-134116666D01*
X100716666Y-134150000D01*
X100683333Y-134183333D01*
X100650000Y-134250000D01*
X100616666Y-134383333D01*
X100616666Y-134550000D01*
X100650000Y-134683333D01*
X100683333Y-134750000D01*
X100716666Y-134783333D01*
X100783333Y-134816666D01*
X100850000Y-134816666D01*
X100916666Y-134783333D01*
X100950000Y-134750000D01*
X100983333Y-134683333D01*
X101016666Y-134550000D01*
X101016666Y-134383333D01*
X100983333Y-134250000D01*
X100950000Y-134183333D01*
X100916666Y-134150000D01*
X100850000Y-134116666D01*
G04 #@! TO.C,R11*
X144235000Y-103476666D02*
X144468333Y-103143333D01*
X144635000Y-103476666D02*
X144635000Y-102776666D01*
X144368333Y-102776666D01*
X144301666Y-102810000D01*
X144268333Y-102843333D01*
X144235000Y-102910000D01*
X144235000Y-103010000D01*
X144268333Y-103076666D01*
X144301666Y-103110000D01*
X144368333Y-103143333D01*
X144635000Y-103143333D01*
X143568333Y-103476666D02*
X143968333Y-103476666D01*
X143768333Y-103476666D02*
X143768333Y-102776666D01*
X143835000Y-102876666D01*
X143901666Y-102943333D01*
X143968333Y-102976666D01*
X142901666Y-103476666D02*
X143301666Y-103476666D01*
X143101666Y-103476666D02*
X143101666Y-102776666D01*
X143168333Y-102876666D01*
X143235000Y-102943333D01*
X143301666Y-102976666D01*
G04 #@! TO.C,R12*
X144280000Y-106016666D02*
X144513333Y-105683333D01*
X144680000Y-106016666D02*
X144680000Y-105316666D01*
X144413333Y-105316666D01*
X144346666Y-105350000D01*
X144313333Y-105383333D01*
X144280000Y-105450000D01*
X144280000Y-105550000D01*
X144313333Y-105616666D01*
X144346666Y-105650000D01*
X144413333Y-105683333D01*
X144680000Y-105683333D01*
X143613333Y-106016666D02*
X144013333Y-106016666D01*
X143813333Y-106016666D02*
X143813333Y-105316666D01*
X143880000Y-105416666D01*
X143946666Y-105483333D01*
X144013333Y-105516666D01*
X143346666Y-105383333D02*
X143313333Y-105350000D01*
X143246666Y-105316666D01*
X143080000Y-105316666D01*
X143013333Y-105350000D01*
X142980000Y-105383333D01*
X142946666Y-105450000D01*
X142946666Y-105516666D01*
X142980000Y-105616666D01*
X143380000Y-106016666D01*
X142946666Y-106016666D01*
G04 #@! TO.C,R13*
X144285000Y-108556666D02*
X144518333Y-108223333D01*
X144685000Y-108556666D02*
X144685000Y-107856666D01*
X144418333Y-107856666D01*
X144351666Y-107890000D01*
X144318333Y-107923333D01*
X144285000Y-107990000D01*
X144285000Y-108090000D01*
X144318333Y-108156666D01*
X144351666Y-108190000D01*
X144418333Y-108223333D01*
X144685000Y-108223333D01*
X143618333Y-108556666D02*
X144018333Y-108556666D01*
X143818333Y-108556666D02*
X143818333Y-107856666D01*
X143885000Y-107956666D01*
X143951666Y-108023333D01*
X144018333Y-108056666D01*
X143385000Y-107856666D02*
X142951666Y-107856666D01*
X143185000Y-108123333D01*
X143085000Y-108123333D01*
X143018333Y-108156666D01*
X142985000Y-108190000D01*
X142951666Y-108256666D01*
X142951666Y-108423333D01*
X142985000Y-108490000D01*
X143018333Y-108523333D01*
X143085000Y-108556666D01*
X143285000Y-108556666D01*
X143351666Y-108523333D01*
X143385000Y-108490000D01*
G04 #@! TO.C,R14*
X144160000Y-111096666D02*
X144393333Y-110763333D01*
X144560000Y-111096666D02*
X144560000Y-110396666D01*
X144293333Y-110396666D01*
X144226666Y-110430000D01*
X144193333Y-110463333D01*
X144160000Y-110530000D01*
X144160000Y-110630000D01*
X144193333Y-110696666D01*
X144226666Y-110730000D01*
X144293333Y-110763333D01*
X144560000Y-110763333D01*
X143493333Y-111096666D02*
X143893333Y-111096666D01*
X143693333Y-111096666D02*
X143693333Y-110396666D01*
X143760000Y-110496666D01*
X143826666Y-110563333D01*
X143893333Y-110596666D01*
X142893333Y-110630000D02*
X142893333Y-111096666D01*
X143060000Y-110363333D02*
X143226666Y-110863333D01*
X142793333Y-110863333D01*
G04 #@! TO.C,R15*
X144345000Y-113636666D02*
X144578333Y-113303333D01*
X144745000Y-113636666D02*
X144745000Y-112936666D01*
X144478333Y-112936666D01*
X144411666Y-112970000D01*
X144378333Y-113003333D01*
X144345000Y-113070000D01*
X144345000Y-113170000D01*
X144378333Y-113236666D01*
X144411666Y-113270000D01*
X144478333Y-113303333D01*
X144745000Y-113303333D01*
X143678333Y-113636666D02*
X144078333Y-113636666D01*
X143878333Y-113636666D02*
X143878333Y-112936666D01*
X143945000Y-113036666D01*
X144011666Y-113103333D01*
X144078333Y-113136666D01*
X143045000Y-112936666D02*
X143378333Y-112936666D01*
X143411666Y-113270000D01*
X143378333Y-113236666D01*
X143311666Y-113203333D01*
X143145000Y-113203333D01*
X143078333Y-113236666D01*
X143045000Y-113270000D01*
X143011666Y-113336666D01*
X143011666Y-113503333D01*
X143045000Y-113570000D01*
X143078333Y-113603333D01*
X143145000Y-113636666D01*
X143311666Y-113636666D01*
X143378333Y-113603333D01*
X143411666Y-113570000D01*
G04 #@! TO.C,R16*
X144285000Y-116176666D02*
X144518333Y-115843333D01*
X144685000Y-116176666D02*
X144685000Y-115476666D01*
X144418333Y-115476666D01*
X144351666Y-115510000D01*
X144318333Y-115543333D01*
X144285000Y-115610000D01*
X144285000Y-115710000D01*
X144318333Y-115776666D01*
X144351666Y-115810000D01*
X144418333Y-115843333D01*
X144685000Y-115843333D01*
X143618333Y-116176666D02*
X144018333Y-116176666D01*
X143818333Y-116176666D02*
X143818333Y-115476666D01*
X143885000Y-115576666D01*
X143951666Y-115643333D01*
X144018333Y-115676666D01*
X143018333Y-115476666D02*
X143151666Y-115476666D01*
X143218333Y-115510000D01*
X143251666Y-115543333D01*
X143318333Y-115643333D01*
X143351666Y-115776666D01*
X143351666Y-116043333D01*
X143318333Y-116110000D01*
X143285000Y-116143333D01*
X143218333Y-116176666D01*
X143085000Y-116176666D01*
X143018333Y-116143333D01*
X142985000Y-116110000D01*
X142951666Y-116043333D01*
X142951666Y-115876666D01*
X142985000Y-115810000D01*
X143018333Y-115776666D01*
X143085000Y-115743333D01*
X143218333Y-115743333D01*
X143285000Y-115776666D01*
X143318333Y-115810000D01*
X143351666Y-115876666D01*
G04 #@! TO.C,R17*
X144440000Y-118716666D02*
X144673333Y-118383333D01*
X144840000Y-118716666D02*
X144840000Y-118016666D01*
X144573333Y-118016666D01*
X144506666Y-118050000D01*
X144473333Y-118083333D01*
X144440000Y-118150000D01*
X144440000Y-118250000D01*
X144473333Y-118316666D01*
X144506666Y-118350000D01*
X144573333Y-118383333D01*
X144840000Y-118383333D01*
X143773333Y-118716666D02*
X144173333Y-118716666D01*
X143973333Y-118716666D02*
X143973333Y-118016666D01*
X144040000Y-118116666D01*
X144106666Y-118183333D01*
X144173333Y-118216666D01*
X143540000Y-118016666D02*
X143073333Y-118016666D01*
X143373333Y-118716666D01*
G04 #@! TO.C,R18*
X144285000Y-121256666D02*
X144518333Y-120923333D01*
X144685000Y-121256666D02*
X144685000Y-120556666D01*
X144418333Y-120556666D01*
X144351666Y-120590000D01*
X144318333Y-120623333D01*
X144285000Y-120690000D01*
X144285000Y-120790000D01*
X144318333Y-120856666D01*
X144351666Y-120890000D01*
X144418333Y-120923333D01*
X144685000Y-120923333D01*
X143618333Y-121256666D02*
X144018333Y-121256666D01*
X143818333Y-121256666D02*
X143818333Y-120556666D01*
X143885000Y-120656666D01*
X143951666Y-120723333D01*
X144018333Y-120756666D01*
X143218333Y-120856666D02*
X143285000Y-120823333D01*
X143318333Y-120790000D01*
X143351666Y-120723333D01*
X143351666Y-120690000D01*
X143318333Y-120623333D01*
X143285000Y-120590000D01*
X143218333Y-120556666D01*
X143085000Y-120556666D01*
X143018333Y-120590000D01*
X142985000Y-120623333D01*
X142951666Y-120690000D01*
X142951666Y-120723333D01*
X142985000Y-120790000D01*
X143018333Y-120823333D01*
X143085000Y-120856666D01*
X143218333Y-120856666D01*
X143285000Y-120890000D01*
X143318333Y-120923333D01*
X143351666Y-120990000D01*
X143351666Y-121123333D01*
X143318333Y-121190000D01*
X143285000Y-121223333D01*
X143218333Y-121256666D01*
X143085000Y-121256666D01*
X143018333Y-121223333D01*
X142985000Y-121190000D01*
X142951666Y-121123333D01*
X142951666Y-120990000D01*
X142985000Y-120923333D01*
X143018333Y-120890000D01*
X143085000Y-120856666D01*
G04 #@! TO.C,U2*
X134183333Y-135746666D02*
X134183333Y-136313333D01*
X134150000Y-136380000D01*
X134116666Y-136413333D01*
X134050000Y-136446666D01*
X133916666Y-136446666D01*
X133850000Y-136413333D01*
X133816666Y-136380000D01*
X133783333Y-136313333D01*
X133783333Y-135746666D01*
X133483333Y-135813333D02*
X133450000Y-135780000D01*
X133383333Y-135746666D01*
X133216666Y-135746666D01*
X133150000Y-135780000D01*
X133116666Y-135813333D01*
X133083333Y-135880000D01*
X133083333Y-135946666D01*
X133116666Y-136046666D01*
X133516666Y-136446666D01*
X133083333Y-136446666D01*
G04 #@! TO.C,R19*
X88786666Y-128650000D02*
X88453333Y-128416666D01*
X88786666Y-128250000D02*
X88086666Y-128250000D01*
X88086666Y-128516666D01*
X88120000Y-128583333D01*
X88153333Y-128616666D01*
X88220000Y-128650000D01*
X88320000Y-128650000D01*
X88386666Y-128616666D01*
X88420000Y-128583333D01*
X88453333Y-128516666D01*
X88453333Y-128250000D01*
X88786666Y-129316666D02*
X88786666Y-128916666D01*
X88786666Y-129116666D02*
X88086666Y-129116666D01*
X88186666Y-129050000D01*
X88253333Y-128983333D01*
X88286666Y-128916666D01*
X88786666Y-129650000D02*
X88786666Y-129783333D01*
X88753333Y-129850000D01*
X88720000Y-129883333D01*
X88620000Y-129950000D01*
X88486666Y-129983333D01*
X88220000Y-129983333D01*
X88153333Y-129950000D01*
X88120000Y-129916666D01*
X88086666Y-129850000D01*
X88086666Y-129716666D01*
X88120000Y-129650000D01*
X88153333Y-129616666D01*
X88220000Y-129583333D01*
X88386666Y-129583333D01*
X88453333Y-129616666D01*
X88486666Y-129650000D01*
X88520000Y-129716666D01*
X88520000Y-129850000D01*
X88486666Y-129916666D01*
X88453333Y-129950000D01*
X88386666Y-129983333D01*
G04 #@! TO.C,R20*
X90586666Y-128662500D02*
X90253333Y-128429166D01*
X90586666Y-128262500D02*
X89886666Y-128262500D01*
X89886666Y-128529166D01*
X89920000Y-128595833D01*
X89953333Y-128629166D01*
X90020000Y-128662500D01*
X90120000Y-128662500D01*
X90186666Y-128629166D01*
X90220000Y-128595833D01*
X90253333Y-128529166D01*
X90253333Y-128262500D01*
X89953333Y-128929166D02*
X89920000Y-128962500D01*
X89886666Y-129029166D01*
X89886666Y-129195833D01*
X89920000Y-129262500D01*
X89953333Y-129295833D01*
X90020000Y-129329166D01*
X90086666Y-129329166D01*
X90186666Y-129295833D01*
X90586666Y-128895833D01*
X90586666Y-129329166D01*
X89886666Y-129762500D02*
X89886666Y-129829166D01*
X89920000Y-129895833D01*
X89953333Y-129929166D01*
X90020000Y-129962500D01*
X90153333Y-129995833D01*
X90320000Y-129995833D01*
X90453333Y-129962500D01*
X90520000Y-129929166D01*
X90553333Y-129895833D01*
X90586666Y-129829166D01*
X90586666Y-129762500D01*
X90553333Y-129695833D01*
X90520000Y-129662500D01*
X90453333Y-129629166D01*
X90320000Y-129595833D01*
X90153333Y-129595833D01*
X90020000Y-129629166D01*
X89953333Y-129662500D01*
X89920000Y-129695833D01*
X89886666Y-129762500D01*
G04 #@! TD*
M02*
